HIERARCHY
ROOT Hips
{
	OFFSET -3.958830 18.904000 13.208200
	CHANNELS 6 Xposition Yposition Zposition Zrotation Yrotation Xrotation 
	JOINT LHipJoint
	{
		OFFSET 0.000000 0.000000 0.000000
		CHANNELS 3 Zrotation Yrotation Xrotation
		JOINT LeftUpLeg
		{
			OFFSET 1.800000 -1.400000 0.085000
			CHANNELS 3 Zrotation Yrotation Xrotation
			JOINT LeftLeg
			{
				OFFSET 2.215000 -6.000000 0.000000
				CHANNELS 3 Zrotation Yrotation Xrotation
				JOINT LeftFoot
				{
					OFFSET 2.500000 -6.900000 0.000000
					CHANNELS 3 Zrotation Yrotation Xrotation
					JOINT LeftToeBase
					{
						OFFSET 0.200000 -0.500000 1.950000
						CHANNELS 3 Zrotation Yrotation Xrotation
						End Site
						{
							OFFSET 0.000000 0.000000 0.000000
						}
					}
				}
			}
		}
	}
	JOINT RHipJoint
	{
		OFFSET 0.000000 0.000000 0.000000
		CHANNELS 3 Zrotation Yrotation Xrotation
		JOINT RightUpLeg
		{
			OFFSET -1.800000 -1.400000 0.085000
			CHANNELS 3 Zrotation Yrotation Xrotation
			JOINT RightLeg
			{
				OFFSET -2.215000 -6.000000 0.000000
				CHANNELS 3 Zrotation Yrotation Xrotation
				JOINT RightFoot
				{
					OFFSET -2.500000 -6.900000 0.000000
					CHANNELS 3 Zrotation Yrotation Xrotation
					JOINT RightToeBase
					{
						OFFSET -0.200000 -0.500000 1.950000
						CHANNELS 3 Zrotation Yrotation Xrotation
						End Site
						{
							OFFSET 0.000000 0.000000 0.000000
						}
					}
				}
			}
		}
	}
	JOINT LowerBack
	{
		OFFSET 0.000000 0.000000 0.000000
		CHANNELS 3 Zrotation Yrotation Xrotation
		JOINT Spine
		{
			OFFSET -0.087000 1.940000 -0.288900
			CHANNELS 3 Zrotation Yrotation Xrotation
			JOINT Spine1
			{
				OFFSET 0.000000 1.950000 0.060000
				CHANNELS 3 Zrotation Yrotation Xrotation
				JOINT Neck
				{
					OFFSET 0.000000 0.000000 0.000000
					CHANNELS 3 Zrotation Yrotation Xrotation
					JOINT Neck1
					{
						OFFSET 0.000000 1.600000 0.340000
						CHANNELS 3 Zrotation Yrotation Xrotation
						JOINT Head
						{
							OFFSET 0.000000 1.667000 -0.240000
							CHANNELS 3 Zrotation Yrotation Xrotation
							End Site
							{
								OFFSET 0.000000 0.000000 0.000000
							}
						}
					}
				}
				JOINT LeftShoulder
				{
					OFFSET 0.000000 0.000000 0.000000
					CHANNELS 3 Zrotation Yrotation Xrotation
					JOINT LeftArm
					{
						OFFSET 2.700000 1.550000 -0.730000
						CHANNELS 3 Zrotation Yrotation Xrotation
						JOINT LeftForeArm
						{
							OFFSET 5.450000 0.000000 0.000000
							CHANNELS 3 Zrotation Yrotation Xrotation
							JOINT LeftHand
							{
								OFFSET 3.450000 0.000000 0.000000
								CHANNELS 3 Zrotation Yrotation Xrotation
								JOINT LeftHandIndex1
								{
									OFFSET 0.750000 0.000000 0.000000
									CHANNELS 3 Zrotation Yrotation Xrotation
									End Site
									{
										OFFSET 0.000000 0.000000 0.000000
									}
								}
							}
						}
					}
				}
				JOINT RightShoulder
				{
					OFFSET 0.000000 0.000000 0.000000
					CHANNELS 3 Zrotation Yrotation Xrotation
					JOINT RightArm
					{
						OFFSET -2.700000 1.550000 -0.730000
						CHANNELS 3 Zrotation Yrotation Xrotation
						JOINT RightForeArm
						{
							OFFSET -5.450000 0.000000 0.000000
							CHANNELS 3 Zrotation Yrotation Xrotation
							JOINT RightHand
							{
								OFFSET -3.450000 0.000000 0.000000
								CHANNELS 3 Zrotation Yrotation Xrotation
								JOINT RightHandIndex1
								{
									OFFSET -0.750000 0.000000 0.000000
									CHANNELS 3 Zrotation Yrotation Xrotation
									End Site
									{
										OFFSET 0.000000 0.000000 0.000000
									}
								}
							}
						}
					}
				}
			}
		}
	}
}
MOTION
Frames: 12
Frame Time: 0.016667
0.148910 16.625610 1.621040 -8.980388 -4.417597 -2.035077 -15.160562 11.605804 1.692784 6.612249 -1.640717 -7.725439 -5.586410 4.353605 5.237278 -0.759530 3.782490 3.340664 0.466980 0.311670 0.247180 19.009919 -6.927075 7.282612 13.209079 26.194232 -73.888923 -16.928834 -2.525976 96.481508 -2.801268 -14.317548 -0.129089 0.322120 0.246020 0.161000 -4.640989 -3.191325 -9.227442 20.087339 -8.154946 18.854105 -5.210452 -2.021498 7.359056 0.540292 -3.657271 -9.520606 -11.136280 0.638275 35.986643 0.990490 0.554640 -14.648010 -32.738942 -22.391541 1.177155 -29.853224 -27.742474 -5.798870 78.110884 -60.939337 -49.678588 -3.492743 1.528109 0.584700 0.086160 0.051310 0.194350 30.690551 20.116112 10.347065 52.162834 -5.933385 -7.089895 -1.482595 10.020976 -0.664274 2.054797 -1.220943 -0.277750 0.400460 0.049790 -0.189030 
0.147430 16.618570 1.650820 -8.774007 -4.608250 -1.814591 -15.177948 11.650622 1.734622 6.406122 -1.615607 -7.451882 -5.667902 4.351046 4.960131 -0.740236 3.809515 3.344310 0.440730 0.280650 0.228080 18.983745 -6.931508 7.239247 12.557970 25.570144 -74.126982 -16.362947 -2.753250 94.748383 -2.707651 -14.062441 -0.070714 0.304390 0.262820 0.159230 -4.579368 -3.293250 -9.224638 19.551564 -8.093805 18.906182 -4.866590 -2.162882 6.728905 0.522452 -3.711625 -9.241394 -11.136806 0.739861 35.603870 0.752880 0.557630 -14.111170 -33.565258 -21.734760 0.853277 -30.291889 -27.485885 -5.993826 73.633646 -62.362676 -46.688373 -3.465146 1.544081 0.571250 0.099000 0.034140 0.193190 31.578786 19.418322 10.265459 51.051309 -6.460163 -7.385502 -0.364679 11.510825 -0.739453 2.032772 -1.219298 -0.284160 0.397940 0.059210 -0.184930 
0.144050 16.608390 1.685500 -8.564784 -4.775672 -1.591082 -15.189823 11.710489 1.776180 6.268630 -1.619230 -7.313231 -5.838630 4.399764 4.971361 -0.717631 3.842643 3.343152 0.415130 0.249060 0.211040 18.956698 -6.965078 7.168974 11.666953 24.645322 -74.262281 -15.638223 -3.198637 92.737371 -2.601144 -13.760489 -0.001951 0.284400 0.277640 0.158770 -4.523425 -3.384423 -9.203904 19.074132 -8.074171 18.877312 -4.640972 -2.357871 6.025599 0.548512 -3.815256 -8.944651 -11.229234 0.941811 35.268970 0.645580 0.605000 -13.608910 -34.342246 -20.884941 0.615221 -31.133281 -27.030403 -6.175409 69.656918 -64.007046 -44.510091 -3.442421 1.562812 0.558980 0.109050 0.019860 0.191380 32.333297 18.610338 10.039230 50.323046 -6.795850 -7.669815 0.601007 12.693546 -0.771759 2.021481 -1.217870 -0.288080 0.393450 0.067110 -0.180190 
0.141190 16.599780 1.723010 -8.387569 -4.965320 -1.515490 -15.198239 11.792334 1.829141 6.229708 -1.628850 -7.114554 -6.103475 4.499312 5.172635 -0.699533 3.889775 3.328081 0.396750 0.222080 0.216910 18.922099 -7.037715 7.070045 10.394183 23.343802 -74.242588 -14.527140 -4.107817 90.501333 -2.491673 -13.417063 0.072093 0.263120 0.270890 0.159590 -4.458680 -3.450159 -9.186340 18.568758 -8.002740 18.962025 -4.531839 -2.510038 5.403211 0.792756 -3.654513 -8.715877 -10.890557 1.108014 35.414393 0.180410 1.014490 -13.533970 -35.077882 -20.210244 0.568197 -32.293993 -26.426318 -6.480403 65.694585 -65.873592 -42.748189 -3.421350 1.585562 0.563950 0.108880 0.021530 0.178950 32.618523 17.962976 9.719953 50.482506 -6.765339 -7.929892 0.974238 13.348147 -0.780993 2.023934 -1.206612 -0.290910 0.384010 0.071020 -0.188970 
0.136020 16.595260 1.761680 -8.159708 -5.225515 -1.504885 -15.202073 11.895683 1.887483 6.170226 -1.631074 -6.953268 -6.326450 4.614314 5.587922 -0.677986 3.927726 3.309710 0.393360 0.207780 0.232380 18.883752 -7.150955 6.947165 9.706914 21.919578 -73.254499 -13.851852 -4.426947 87.458145 -2.365887 -12.938307 0.179900 0.242290 0.251350 0.172710 -4.392773 -3.494031 -9.164767 18.006008 -7.805695 19.077895 -4.469184 -2.574993 4.759414 1.087466 -3.372192 -8.497065 -10.395618 1.264168 35.897950 -0.291540 1.519020 -13.618410 -36.011146 -19.630371 0.538971 -33.364912 -25.791211 -6.847421 60.065485 -67.837505 -40.006762 -3.404892 1.697970 0.576250 0.101240 0.037160 0.172070 33.002233 17.372975 9.402369 50.879862 -6.677124 -8.140906 1.040478 13.713534 -0.782253 2.032213 -1.203363 -0.281270 0.361290 0.066060 -0.198040 
0.128320 16.591970 1.805940 -7.896083 -5.313194 -1.579058 -15.202419 12.039471 1.967815 6.116582 -1.623404 -6.756248 -6.548503 4.752608 6.067000 -0.662233 3.980192 3.284801 0.376770 0.178400 0.243310 18.834626 -7.324799 6.753804 9.517500 20.187326 -71.229143 -13.374367 -4.498471 83.546991 -2.200162 -12.302003 0.331011 0.216470 0.233070 0.178760 -4.312191 -3.544860 -9.125621 17.356276 -7.582335 19.086958 -4.342236 -2.692878 4.187527 1.389545 -2.978868 -8.345763 -9.776935 1.377631 36.674189 -0.778490 2.046890 -13.575920 -36.970514 -19.122010 0.656098 -34.620662 -25.168579 -7.110966 52.842399 -69.367281 -36.165838 -3.419436 1.885375 0.592200 0.094190 0.047670 0.156250 33.417913 16.808517 9.093324 51.336654 -6.613527 -8.362116 1.068219 14.036393 -0.775113 2.040390 -1.189365 -0.281250 0.342560 0.070330 -0.212330 
0.119590 16.588380 1.855790 -7.499984 -5.121155 -1.835230 -15.200455 12.233092 2.071999 5.948679 -1.578834 -6.470798 -6.697123 4.901688 6.650420 -0.654745 4.042157 3.254989 0.358370 0.143660 0.256760 18.772164 -7.567233 6.480953 9.407404 18.079507 -68.473367 -12.818508 -4.524028 78.607687 -1.989591 -11.468261 0.538884 0.189680 0.212690 0.182860 -4.211855 -3.602114 -9.064731 16.514297 -7.382667 19.030357 -4.239787 -2.891839 3.782420 1.718937 -2.436853 -8.292483 -8.975018 1.461141 37.825398 -1.217230 2.578960 -13.604300 -37.781946 -18.764224 0.971370 -35.991609 -24.617356 -7.198827 44.432506 -69.977298 -31.221690 -3.453881 2.113997 0.617960 0.084660 0.059580 0.136170 33.652468 16.338015 8.769363 52.174404 -6.405926 -8.598048 0.804843 14.243517 -0.776450 2.048481 -1.166000 -0.287060 0.327550 0.078740 -0.232400 
0.108580 16.580220 1.911870 -7.082351 -4.712127 -2.042564 -15.194932 12.467493 2.183304 5.713767 -1.524642 -6.301289 -6.663041 5.038212 7.393077 -0.641633 4.086323 3.230887 0.336550 0.109970 0.263310 18.702133 -7.869874 6.130739 9.173796 15.715315 -65.216714 -11.925024 -4.791532 73.031920 -1.747066 -10.508902 0.791278 0.161400 0.196900 0.186030 -4.107161 -3.662203 -8.960727 15.640355 -7.255342 18.601356 -4.092240 -3.239438 3.579437 2.017670 -1.908213 -8.302103 -8.184918 1.563749 38.936879 -1.616850 3.073500 -13.262310 -38.219939 -18.354800 1.455972 -37.845618 -24.183863 -7.095720 36.332346 -69.417825 -26.080207 -3.492545 2.322772 0.629450 0.080000 0.065240 0.116600 33.590041 15.817253 8.386056 53.146457 -6.036096 -8.811969 0.498344 14.499878 -0.796958 2.062710 -1.147574 -0.286990 0.308950 0.087520 -0.246130 
0.097480 16.565510 1.974980 -6.506447 -4.077824 -2.222301 -15.193617 12.732202 2.304828 5.250215 -1.435055 -6.139896 -6.481995 5.148188 8.214972 -0.628529 4.118173 3.210796 0.322710 0.087230 0.265660 18.623165 -8.214374 5.713436 8.912845 13.203184 -61.691625 -11.180742 -4.888318 66.990858 -1.487005 -9.447552 1.085450 0.140320 0.183500 0.193040 -3.987227 -3.741237 -8.816841 14.597377 -7.201357 17.922436 -3.899622 -3.716325 3.351185 2.235424 -1.481669 -8.159397 -7.542880 1.648222 39.750335 -1.943640 3.411140 -12.878210 -38.424842 -17.570268 1.788285 -39.922634 -24.054306 -6.596365 27.851203 -67.889855 -20.421065 -3.522878 2.518162 0.634740 0.077450 0.069870 0.105150 33.474801 14.876080 7.816707 53.984453 -5.560783 -8.844266 0.432853 14.346026 -0.798477 2.083392 -1.133318 -0.282030 0.287380 0.091640 -0.253870 
0.084580 16.541050 2.044520 -5.790935 -3.410501 -2.243278 -15.198486 12.999467 2.425450 4.612159 -1.314644 -5.989620 -6.209020 5.228641 8.990919 -0.606743 4.150421 3.201521 0.299250 0.058770 0.246570 18.543599 -8.560167 5.265281 8.548696 10.770452 -58.181530 -10.513921 -4.853432 60.643732 -1.212586 -8.319955 1.420197 0.118670 0.195820 0.202510 -3.864384 -3.838503 -8.634085 13.457192 -7.243788 16.899480 -3.735864 -4.314887 3.129676 2.331620 -1.227647 -7.876726 -7.129119 1.862614 40.003176 -2.083180 3.662790 -11.992020 -38.239469 -16.436791 1.963224 -42.209731 -24.114872 -5.808959 21.321167 -65.868413 -16.013984 -3.556056 2.654015 0.621540 0.090510 0.060690 0.105830 33.220653 13.545445 7.091726 54.791574 -5.003599 -8.736280 0.553884 13.938388 -0.794051 2.109187 -1.122869 -0.278500 0.272010 0.099400 -0.247750 
0.069270 16.508090 2.117020 -4.982719 -2.654261 -2.102257 -15.214465 13.260128 2.536489 3.875760 -1.191240 -5.903111 -5.869277 5.298562 9.807574 -0.577745 4.181645 3.199154 0.266770 0.025040 0.215730 18.462781 -8.878262 4.816912 7.896684 8.483680 -54.978746 -9.676655 -4.874952 54.350547 -0.936714 -7.205573 1.771699 0.097050 0.223010 0.204750 -3.729900 -3.970179 -8.424671 12.229661 -7.396604 15.615702 -3.516618 -5.009714 2.940814 2.306028 -1.148747 -7.505370 -6.971282 2.101510 39.661241 -2.188840 3.812000 -10.597790 -37.659496 -15.091791 1.991562 -44.697433 -24.320596 -4.792164 16.358983 -63.493640 -12.649977 -3.594976 2.751650 0.587540 0.115430 0.033430 0.107600 32.827502 12.000554 6.302948 55.528009 -4.464783 -8.520882 0.911362 13.340583 -0.789184 2.141490 -1.118150 -0.277120 0.258520 0.108960 -0.234660 
0.052480 16.468970 2.194900 -4.132489 -2.427438 -1.883083 -15.232725 13.501301 2.636565 3.110755 -1.077315 -5.910253 -5.514217 5.379450 10.789058 -0.557220 4.242140 3.197457 0.216110 -0.034910 0.170070 18.386539 -9.174988 4.392129 7.098193 6.568410 -51.521857 -8.579456 -4.828477 47.928046 -0.661316 -6.073937 2.154741 0.070350 0.275690 0.201300 -3.597207 -4.076076 -8.201176 11.048252 -7.424374 14.247308 -3.375523 -5.497240 2.687856 2.239959 -1.132764 -7.078494 -6.855482 2.420921 39.034460 -2.072460 3.908470 -8.813470 -37.025230 -13.624557 1.843382 -46.939910 -24.390579 -3.663857 12.220968 -61.189053 -9.920513 -3.649416 2.813519 0.551720 0.153510 -0.012340 0.111400 32.445727 10.372785 5.559033 56.112979 -4.081926 -8.223211 1.441462 12.501862 -0.766008 2.168720 -1.105647 -0.294860 0.260280 0.131130 -0.222030 
